<svg width="82" height="40" viewBox="0 0 82 40" xmlns="http://www.w3.org/2000/svg">
    <g fill="none" fill-rule="evenodd">
        <path d="M60.9 16.616c-.007.065-.02.124-.03.189h.023c.007-.022.007-.04.007-.065.031-.04.06-.08.092-.124H60.9" fill="#005283"/>
        <path d="M7.164 22.118H5.748L.617 8.348h1.519l3.37 9.428c.302.816.692 1.915.981 2.978h.02c.291-1.022.657-2.06 1.048-3.107l3.507-9.3h1.375l-5.273 13.77m6.766.001h1.296V11.98h-1.295v10.137zm.66-12.074a.913.913 0 0 1-.919-.919c0-.507.407-.916.92-.916.51 0 .923.39.923.916a.918.918 0 0 1-.923.919zm5.353 12.24c-.778 0-1.561-.063-2.171-.207l.041-1.224a8.768 8.768 0 0 0 2.295.328c1.58 0 2.687-.695 2.687-1.856 0-2.587-5.147-.961-5.147-4.61 0-1.652 1.373-2.9 3.895-2.9.64 0 1.379.084 2.034.23l-.061 1.141c-.681-.203-1.437-.348-2.15-.348-1.587 0-2.405.674-2.405 1.734 0 2.61 5.174 1.06 5.174 4.57 0 1.731-1.561 3.142-4.192 3.142m6.63-.166h1.293V11.98h-1.293v10.137zm.657-12.074a.913.913 0 0 1-.925-.919c0-.507.407-.916.925-.916.511 0 .923.39.923.916a.916.916 0 0 1-.923.919zm7.199 12.219c-1.987 0-2.545-.9-2.545-2.938v-6.32h-2.337v-1.024h2.321V8.56l1.289-.35v3.772h3.14v1.024h-3.14v5.689c0 1.935.35 2.429 1.623 2.429.534 0 1.066-.069 1.517-.188v1.142c-.53.1-1.23.186-1.868.186M4.457 39.537c-1.046 0-2.033-.118-2.795-.343l.085-1.31c.822.286 1.87.51 2.832.51 1.869 0 3.465-.754 3.465-2.752 0-3.406-6.563-2.182-6.563-6.464 0-2.143 1.744-3.73 4.696-3.73.886 0 1.68.101 2.49.245l-.084 1.219a8.746 8.746 0 0 0-2.504-.387c-2.114 0-3.265 1-3.265 2.508 0 3.324 6.586 2.122 6.586 6.426 0 2.404-1.889 4.078-4.943 4.078m18.033-.163h-1.537l-2.422-7.017a27.927 27.927 0 0 1-.558-1.856h-.023c-.22.859-.49 1.696-.755 2.553l-2.008 6.32h-1.564l-3.182-10.137h1.479l1.89 6.526c.244.897.51 1.756.674 2.368h.022c.186-.757.43-1.59.68-2.368l2.11-6.526h1.561l2.133 6.51c.431 1.304.577 1.811.74 2.408h.022c.181-.738.385-1.355.694-2.369l1.99-6.549h1.396L22.49 39.374m8.738-9.316c-1.52 0-2.583 1.076-2.874 2.768h5.5c.042-1.628-.961-2.768-2.626-2.768zm3.964 3.767h-6.917c-.122 3.289 1.127 4.633 3.508 4.633 1.069 0 2.215-.288 2.953-.658l.125 1.15c-.921.365-2.032.587-3.306.587-3.037 0-4.657-1.632-4.657-5.202 0-3.015 1.64-5.26 4.417-5.26 2.767 0 3.916 1.894 3.916 4.08 0 .143 0 .382-.04.67zm8.922-3.425a9.13 9.13 0 0 0-2.136-.263c-2.235 0-3.69 1.324-3.69 4.505 0 2.41.822 3.858 2.607 3.858 2.194 0 3.22-2.55 3.22-4.367v-3.734zm-.018 8.974c0-.653.058-1.688.185-2.323l-.042-.022c-.551 1.53-1.91 2.508-3.553 2.508-2.54 0-3.773-1.815-3.773-4.773 0-3.664 2.073-5.65 5.191-5.65.635 0 1.273.041 2.01.123v-4.751h1.294v14.888h-1.313zm7.738-9.316c-1.525 0-2.587 1.076-2.873 2.768h5.494c.045-1.628-.963-2.768-2.621-2.768zm3.956 3.767h-6.915c-.124 3.289 1.13 4.633 3.506 4.633 1.07 0 2.222-.288 2.96-.658l.118 1.15c-.924.365-2.031.587-3.3.587-3.036 0-4.656-1.632-4.656-5.202 0-3.015 1.64-5.26 4.41-5.26 2.77 0 3.918 1.894 3.918 4.08 0 .143 0 .382-.041.67zm9.398 5.549V32.79c0-1.69-.473-2.693-2.075-2.693-1.926 0-3.28 1.878-3.28 4.425v4.853H58.54V29.237h1.31c0 .695-.058 1.715-.184 2.347l.045.022c.571-1.548 1.886-2.552 3.689-2.552 2.364 0 3.08 1.447 3.08 3.262v7.058h-1.292" fill="#1A4D80"/>
        <path d="M64.141 2.17c.515-.012.546.108.833.337.239.523.579 1.06.742 1.535.074.21-.017.42-.03.492-.057.325.278.768.464.917-.066.087-.079.048-.062.154.062.135.116.149.276.184v.02c-.129.019-.151.019-.214.073a.97.97 0 0 0 .122.369c.083.006.165.02.245.034-.385.334-.155 1.712.034 2.51.5-.073 1.01-.143 1.509-.215.836-.049 1.668-.105 2.501-.153.705-.201 1.59-.453 2.347-.613a513.43 513.43 0 0 1 2.344-.18c.697-.126 2.74-.31 3.06.18.066.132-.014.388.087.523.15-.022.237.034.28.21-.065.02-.128.042-.188.063-.013.5-.039.598.06.922.274.032.539.063.801.091a.427.427 0 0 0-.024.062 2.89 2.89 0 0 0-.216.189v.016c.189.026.196.034.24.192-.08.015-.159.025-.24.032v.018c.133.072.185.097.24.226-.087.043-.066.023-.119.095h.188c-.055.072-.106.145-.156.212.165.028.113.015.182.124v.03c-.095.03-.182.063-.275.092v.022c.021.015.04.015.061.015.07.006.145.019.214.026-.056.068-.052.041-.095.155.131.045.101-.009.069.12a.951.951 0 0 0-.124.034v.018c.205 0 .18-.01.308.07-.022.04-.04.084-.064.126a5.16 5.16 0 0 1 .216-.034c-.061.104-.085.206-.124.337a1.07 1.07 0 0 0 .184-.033c-.05.24-.026.163-.151.373h.151c-.018.012-.04.018-.06.034-.611.62-1.424.766-2.22 1.225-.564.324-.733.602-1.572.77-.438.08-.828-.022-1.237.056-.464.13-.926.267-1.391.402-.38.044-.758.098-1.139.149-.198.07-.325.277-.558.338-.795.214-3.697-.251-4.195.552-.168.238.156 2.64.156 2.64.011.006.016.022.016.022.107.362-.083.644.198.806.06.053.165.057.245.088-.187.032-.25.103-.365.188.029.032.058.06.09.09.052.092.072.07.154.125-.064.078-.082.062-.124.18.07.022.145.045.22.066-.024.03-.049.057-.066.09-.07.022-.145.041-.216.06.154.994.116 2.89-.83 3.47-.124.077-.14.23-.28.212.078-.135.094-.328-.032-.398-.132-.094-.313.09-.4.03-.069-.046-.016-.172-.123-.181-.01.005-.018.018-.033.026a.604.604 0 0 0-.185.062c.015-.138.038-.125-.032-.217a4.349 4.349 0 0 1-.215.249c-.018-.011-.04-.021-.054-.032a.91.91 0 0 1-.035-.153c-.314.2-.5.294-.772.273-.022.045-.043.084-.064.129l-.03-.186c-.026.007-.044.022-.066.03a4.775 4.775 0 0 1-.027.156 9.154 9.154 0 0 0-.183-.065c-.115.114-.314.259-.25.434-.16-.046-.143-.046-.305.027-.043.15-.05.163-.035.337-.195-.062-.165.04-.274-.062-.468-.272-.434-.985-.774-1.38-.175.113-.35.227-.524.342-.148.157-.143.403-.31.55-.55-.096-.664-.742-.804-1.262-.252-.929-.414-2.887-.245-3.952v-1.537h-.03v.062c-.019.36-.038.712-.063 1.076h-.028c-.032-.011-.059-.022-.094-.032-.075-.58-.143-1.165-.219-1.748-.263.081-.532.161-.8.244-.208.015-.413.018-.617.031-.563.17-1.571.136-2.44.308-2.033.402-5.515 1.593-7.16-.124l-.304-.06c-.1-.087-.174-.353-.218-.4-.23-.25-.554-.375-.68-.734a1.85 1.85 0 0 0 .186-.064c-.117-.087-.223-.025-.28-.241.103-.123 0-.486.06-.649.046-.112.78-1.041.9-1.135 1.174-.923 5.776-2.432 7.376-2.483.115-.477.882 0 1.417-.126.795-.191 1.587-.383 2.38-.58-.011-.445-.173-.522-.247-.829-.076-.284-.044-2.127.061-2.328h.02c.01.081.01.16.01.244.04-.02.08-.043.121-.061.053-.027.106-.062.156-.093-.096-.77.078-.99.278-1.658.363-1.2.076-2.02.989-2.728.322-.255.362-.453.893-.49.197.257.456.348.862.397.222-.327.388-.347.741-.553" fill="#FECB00"/>
        <path d="M77.135 3.978c.052.011.102.019.153.034-.131.057-.13.085-.186.212.033.019.064.045.097.059.08-.024.045-.045.117-.024-.085.106-.16.12-.214.275a.166.166 0 0 1 .064.03l.277-.156a.952.952 0 0 1-.031.064l-.31.244.097.246c-.1.067-.097.115-.124.247.04-.011.082-.026.124-.034-.033.051-.064.107-.097.156.055-.013.104-.022.16-.03-.225.337-.39.875-.652 1.348-.755.212-1.233.685-1.971.92-.564.174-1.023.066-1.606.183-.332.096-.663.19-.99.276-.572.112-1.117.004-1.544-.06-1.014-.147-2.1.174-3.054-.154-.486-.167-.785-.573-1.146-.856.08-.279.11-.221.252-.343-.101-.139-.035-.145-.065-.308.125-.01.125-.004.185-.056l-.029-.034a6.168 6.168 0 0 1-.397-.032l-.066-.303.246-.093c-.157-.089-.241-.085-.337-.246.048-.027.1-.06.157-.092v-.024c-.121-.053-.164-.043-.22-.16.143 0 .21 0 .274-.058-.172-.005-.288-.026-.368-.123-.258-.377-.016-.562-.184-1.074-.108-.322-.406-.601-.559-.923-.083-.187.016-.5-.028-.797.064-.03.125-.062.187-.094-.042-.015-.079-.04-.123-.056.13-.341.726-.657.8-.89.238.03.48-.077.647-.066.364.03.93.323 1.423.216.8-.173 1.534-.59 2.406-.764.78-.164 1.168.063 1.698.151.296-.062.593-.12.895-.183.254-.062 1.525-.038 1.729.095.049.057.105.116.152.184.713.224 1.265-.158 1.821.241a.623.623 0 0 1-.03.06c-.087.012-.067 0-.155.067v.088c.072.08.146.144.216.215-.092.06-.048.01-.092.121h.186c-.012.024-.021.045-.032.062l-.215.062v.184c.078.062.11.038.181.062-.039.157-.014.047.034.215-.117.04-.062 0-.124.09a.74.74 0 0 0 .124.03c-.105.08-.093.013-.124.19.1.113.097.126.219.214-.075.178-.095.62 0 .765a3.22 3.22 0 0 1 .216-.064v.02c-.023.014-.042.014-.064.014-.055.037-.103.08-.152.118v.021c.175 0 .246-.02.333.045h-.054c-.117.089-.127.063-.127.273M54.609 2.292c1.228-.03 2.144.093 2.716.708-.096.04-.04 0-.096.059.532.112.493.747 1.081.861v.058c-.174.014-.155-.002-.22.127.415.212.686 1.106.532 1.684h.212-.06a.426.426 0 0 0-.183.215c.193.324.06.348.09.582-.034.074-.06.145-.09.217h.12c-.098.11-.157.11-.213.276.04-.02.08-.046.124-.062-.059.156-.148.209-.189.46h.065c.1.026.105.001.212-.03-.051.073-.1.137-.153.212.034-.01.065-.017.09-.026l-.15.242c.08.053.046.05.15.03-.13.278-.394.404-.556.736.106-.06.209-.12.311-.186-.068.197-.184.163-.246.372a2.42 2.42 0 0 1 .185-.062c-.13.27-.741 1.13-1.016 1.317-.359.24-.848.206-1.297.37-1.591.568-3.615 1.42-5.556 1.226-.605-.056-1.49.252-2.16 0-.902-.34-1.206-.86-1.728-1.564.114-.055.104.012.09-.09-.235-.088.353-1.581.403-1.78.142-.018.464-.223.401-.247.058-.248-.06-.642-.092-.829.062-.043.123-.1.185-.15-.14-.542.195-.597.31-1.106-.023-.194-.04-.39-.065-.58.165-.554.26-1.124.653-1.627.57-.737 3.464-1.07 4.628-1.29.504-.04 1.009-.084 1.512-.123M68.65 22.658v-.185c-.161-.082-.371-.345-.4-.459-.012-.638.217-.768-.032-1.259a2.058 2.058 0 0 1-.25-.06c.084-.125-.095-.228-.215-.336l.154-.152c-.038-.024-.083-.041-.122-.062.065-.156.213-.156.337-.245a.745.745 0 0 1-.028-.068c-.083-.013-.162-.033-.247-.052.079-.093.088-.06.122-.216-.159-.039-.117-.055-.216-.122.012-.032.022-.066.032-.096l.37-.182v-.02c-.248.01-.276.002-.431-.109-.03-.27.019-.59-.095-.789.066-.035.124-.066.186-.096-.08-.027-.165-.06-.247-.089.13-.553.167-1.154.553-1.626.31-.367.697-.388 1.177-.521.07-.082.14-.167.211-.248.125-.086.837-.338.958-.365.48-.034.947-.06 1.42-.093.205-.094.416-.186.618-.28.432-.152.879-.035 1.39-.152.467-.105.983-.303 1.386-.429 1.285-.39 3.576-.173 3.922.894.022.033.218.57.186.641-.086.039-.015.007 0 .093.172.05.172.168.277.272-.033.316.036.43-.155.617.03.05.06.104.094.156.614.03 1.208.462 1.36.823a.977.977 0 0 0-.097.063l.029.123c.105.032.21.06.312.094-.092.06-.092.083-.096.24.281.1.245.515.096.672.11.28.05.323.12.529-.062.018-.12.039-.18.06.053.159-.06.144.06.247-.048.124-.044.083-.125.15.094.136.142.099.03.216-.393.616-1.273.494-1.667.95.158-.072.31-.14.464-.214-.466.789-1.975.847-2.991 1.076-1.285.224-2.571.445-3.862.673-.771.166-1.846.464-2.774.367-.422-.05-.845-.1-1.265-.152-.201-.126-.05-.247-.37-.279M57.941 16.74c.576.175.79.167 1.268.399-.128.049-.116.062-.19.155.047.2.362.685.773.674l-.033.182c.094-.013.398.018.523.061-.032.087-.024.045-.024.122.155.055.155.076.335.067-.028.248-.066.294-.156.583-.155.023-.353.08-.336.211-.375.669.357 1.707-.892 1.96.023.698-.663 1.332-.807 1.935h.031a1.59 1.59 0 0 0 .124-.064c-1.464 1.683-3.939 1.709-6.636 2.147-.975.162-2.101.4-2.931-.056-.772-.43-1.168-1.263-.646-1.936.083-.155.161-.307.246-.458-.16-.284-1.025-.967-.56-1.41-.29-.71.897-1.063 1.176-1.507.794-1.23 2.263-1.277 3.798-1.744 1.083-.33 2.349-.826 3.49-1.138.462-.126.931.025 1.447-.183" fill="#005293"/>
    </g>
</svg>
