<svg width="125" height="37" viewBox="0 0 125 37" xmlns="http://www.w3.org/2000/svg">
    <g fill="none" fill-rule="evenodd">
        <path d="M0 .607h51.471v31.54H0z" fill="#FECB00"/>
        <path d="M0 .607h16.544v12.738H0zM0 19.41h16.544v12.738H0zM22.672.607H51.47v12.738h-28.8zm0 18.803H51.47v12.738h-28.8z" fill="#005293"/>
        <path d="M59.63 5.664c-1.042-.415-1.839-1.031-1.839-2.342 0-1.715 1.339-2.732 3.017-2.732 1.703 0 2.84 1.07 2.867 2.838l-1.326.308c-.135-1.219-.703-1.768-1.569-1.768-.759 0-1.487.415-1.487 1.219s.728 1.098 1.311 1.326l1.366.535c1.203.47 2.029 1.112 2.029 2.478 0 1.766-1.406 2.758-3.18 2.758-1.906 0-3.299-1.151-3.312-3.08l1.325-.267c.162 1.23.772 1.967 1.96 1.967.826 0 1.691-.347 1.691-1.285 0-.87-.743-1.124-1.54-1.432l-1.312-.523m9.795 4.54L68.343 6.82l-1.07 3.384h-1.392l-1.719-6.79h1.393l1.232 4.58 1.097-3.67h.934l1.095 3.67 1.231-4.58h1.38l-1.705 6.79h-1.393m7.703-4.071c-.203-1.219-.92-1.46-1.489-1.46-.661 0-1.351.349-1.595 1.46h3.084zM74.03 7.27c.162 1.406.948 1.674 1.583 1.674A1.86 1.86 0 0 0 77.21 8.1l1.245.322c-.365 1.138-1.42 1.86-2.815 1.86-1.582 0-3.096-.923-3.096-3.454 0-2.57 1.555-3.495 3.056-3.495 1.503 0 3.045.925 3.045 3.481v.456H74.03zm9.957-.923c-.176-1.179-.865-1.674-1.637-1.674-.661 0-1.528.362-1.528 2.142 0 1.754.852 2.13 1.556 2.13.649 0 1.433-.322 1.61-1.407V6.347zm.094 3.857l-.053-.616c-.623.535-1.136.696-1.703.696-1.367 0-2.963-.924-2.963-3.481 0-2.544 1.596-3.47 2.922-3.47.621 0 1.121.203 1.703.684V.67h1.434v9.534h-1.34zm6.833-4.071c-.203-1.219-.92-1.46-1.488-1.46-.663 0-1.352.349-1.595 1.46h3.083zM87.816 7.27c.163 1.406.947 1.674 1.584 1.674a1.86 1.86 0 0 0 1.595-.844l1.245.322c-.366 1.138-1.421 1.86-2.814 1.86-1.582 0-3.097-.923-3.097-3.454 0-2.57 1.556-3.495 3.056-3.495 1.502 0 3.045.925 3.045 3.481v.456h-4.614zm9.433 2.934V6.28c0-1.339-.677-1.607-1.163-1.607-.528 0-1.178.308-1.34 1.286v4.245h-1.434v-6.79h1.326l.04.563c.555-.455 1.042-.643 1.582-.643 1.084 0 2.422.737 2.422 2.826v4.044h-1.433M60.651 24.65c-1.696-.677-2.997-1.68-2.997-3.818 0-2.792 2.183-4.45 4.916-4.45 2.775 0 4.627 1.744 4.67 4.624l-2.16.502c-.22-1.985-1.145-2.88-2.555-2.88-1.235 0-2.425.678-2.425 1.985 0 1.31 1.19 1.789 2.138 2.16l2.225.873c1.962.764 3.307 1.81 3.307 4.036 0 2.879-2.291 4.493-5.179 4.493-3.108 0-5.379-1.875-5.4-5.016l2.16-.438c.265 2.007 1.256 3.207 3.197 3.207 1.344 0 2.753-.567 2.753-2.093 0-1.419-1.21-1.833-2.511-2.335l-2.139-.85m25.091.763c-.33-1.985-1.499-2.378-2.424-2.378-1.079 0-2.203.567-2.6 2.378h5.024zm-5.047 1.854c.266 2.29 1.544 2.727 2.579 2.727 1.036 0 1.961-.436 2.6-1.375l2.027.524c-.595 1.855-2.312 3.032-4.583 3.032-2.579 0-5.047-1.504-5.047-5.627 0-4.19 2.535-5.695 4.98-5.695 2.448 0 4.96 1.506 4.96 5.672v.742h-7.516zm19.245-7.7c-.857 0-1.54-.72-1.54-1.614 0-.918.683-1.637 1.54-1.637.884 0 1.588.72 1.588 1.637 0 .894-.704 1.614-1.587 1.614zm-3.37 12.478v-2.117h2.248v-6.827H96.57v-2.117h4.54v8.944h2.248v2.117H96.57zm14.69-6.283c-.288-1.92-1.41-2.727-2.667-2.727-1.08 0-2.49.611-2.49 3.49 0 2.858 1.388 3.47 2.534 3.47 1.057 0 2.335-.525 2.623-2.292v-1.941zm0 5.324c-1.036.893-1.896 1.09-2.711 1.09-2.226 0-4.826-1.505-4.826-5.672 0-4.145 2.6-5.65 4.803-5.65.992 0 1.807.305 2.8 1.156l.066-1.026h2.204v11.061c0 2.64-1.895 4.603-4.872 4.603-2.292 0-3.987-1.135-4.539-3.033l2.028-.522c.639.937 1.566 1.373 2.6 1.373 1.566 0 2.447-.96 2.447-2.421v-.959zm11.239-5.673c-.331-1.985-1.499-2.378-2.424-2.378-1.08 0-2.205.567-2.601 2.378h5.025zm-5.047 1.854c.264 2.29 1.544 2.727 2.578 2.727 1.037 0 1.961-.436 2.601-1.375l2.027.524c-.594 1.855-2.315 3.032-4.583 3.032-2.578 0-5.047-1.504-5.047-5.627 0-4.19 2.534-5.695 4.98-5.695 2.447 0 4.958 1.506 4.958 5.672v.742h-7.514zm-21.846-6.259a4.735 4.735 0 0 0-1.078-.152c-.882 0-1.83.566-2.667 1.394l-.088-1.263h-2.182v11.058h2.335v-6.391c.31-1.767 1.39-2.356 2.38-2.356.331 0 .727.066 1.3.175v-2.465M72.004 32.045l-3.97-11.06h2.422l2.692 7.882 2.696-7.883h2.418l-3.968 11.061h-2.29" fill="#1A4D80"/>
    </g>
</svg>
