<svg xmlns="http://www.w3.org/2000/svg" width="34" height="34" viewBox="0 0 34 34">
    <path fill-opacity=".7" fill-rule="evenodd" d="M15.449 0h2.692c3.353.005 3.98.028 5.578.101 1.788.082 3.009.366 4.077.78A8.232 8.232 0 0 1 30.77 2.82a8.233 8.233 0 0 1 1.937 2.975c.415 1.068.699 2.289.78 4.076.078 1.695.1 2.298.101 6.22v1.41c-.002 3.921-.023 4.525-.1 6.22-.082 1.787-.366 3.008-.781 4.076a8.233 8.233 0 0 1-1.937 2.975 8.233 8.233 0 0 1-2.975 1.937c-1.068.415-2.29.699-4.077.78-1.694.078-2.298.1-6.219.101h-1.41c-3.922-.002-4.525-.023-6.22-.1-1.787-.082-3.008-.366-4.076-.781a8.233 8.233 0 0 1-2.975-1.937 8.232 8.232 0 0 1-1.937-2.975c-.415-1.068-.7-2.29-.78-4.077C.027 22.121.004 21.494 0 18.141v-2.692c.004-3.353.027-3.981.1-5.579.082-1.787.366-3.008.78-4.076a8.232 8.232 0 0 1 1.94-2.975A8.232 8.232 0 0 1 5.794.882C6.862.467 8.083.182 9.87.102 11.468.027 12.096.004 15.45 0h2.692zm2.701 3.027h-2.71c-3.263.004-3.858.025-5.432.097-1.637.075-2.527.348-3.118.578A5.203 5.203 0 0 0 4.959 4.96a5.203 5.203 0 0 0-1.257 1.93c-.23.592-.503 1.482-.578 3.12-.072 1.573-.093 2.168-.097 5.43v2.711c.004 3.262.025 3.857.097 5.431.075 1.638.348 2.527.578 3.119a5.204 5.204 0 0 0 1.257 1.93 5.203 5.203 0 0 0 1.93 1.257c.592.23 1.482.504 3.12.578 1.672.077 2.238.096 6.074.098h1.423c3.836-.002 4.403-.021 6.075-.098 1.638-.074 2.527-.348 3.119-.578a5.203 5.203 0 0 0 1.93-1.256 5.203 5.203 0 0 0 1.257-1.931c.23-.592.504-1.481.578-3.119.077-1.672.096-2.24.098-6.075v-1.423c-.002-3.836-.021-4.402-.098-6.075-.074-1.637-.348-2.527-.578-3.118a5.203 5.203 0 0 0-1.256-1.931A5.203 5.203 0 0 0 26.7 3.702c-.592-.23-1.481-.503-3.119-.578-1.574-.072-2.169-.093-5.43-.097zm-1.117 5.362a8.633 8.633 0 1 1 0 17.267 8.633 8.633 0 0 1 0-17.267zm0 3.03a5.604 5.604 0 1 0 0 11.208 5.604 5.604 0 0 0 0-11.208zm8.867-5.83a2.1 2.1 0 1 1 0 4.2 2.1 2.1 0 0 1 0-4.2z"/>
</svg>
