<svg width="136" height="24" viewBox="0 0 136 24" xmlns="http://www.w3.org/2000/svg">
    <path d="M8.282 20.86h-2.64L0 4.14h3.313l3.649 11.13 3.625-11.13H13.9L8.282 20.86zm14.237 0h-7.755v-2.654h2.329v-6.598h-2.329V8.954h5.402v9.252h2.353v2.653zm-3.89-13.056c-1.08 0-1.944-.845-1.944-1.902S17.549 4 18.629 4s1.945.845 1.945 1.902-.864 1.902-1.945 1.902zm14.5 4.438l-2.688.68c-.432-.962-.96-1.361-1.68-1.361-.673 0-1.225.329-1.225.775 0 .422.528.61 1.825 1.056l.792.282c1.848.657 3.313 1.526 3.313 3.593 0 2.489-2.185 3.733-4.778 3.733-2.64 0-4.225-1.268-4.873-3.522l2.689-.681c.552 1.08 1.32 1.456 2.256 1.456.84 0 1.537-.305 1.537-.916 0-.517-.48-.751-1.68-1.197l-.889-.33c-1.512-.563-3.289-1.29-3.289-3.404 0-2.16 1.873-3.592 4.321-3.592 2.185 0 3.746 1.15 4.37 3.428zm9.724 8.617h-7.755v-2.653h2.329v-6.598h-2.329V8.954H40.5v9.252h2.353v2.653zm-3.89-13.055c-1.08 0-1.944-.845-1.944-1.902S37.883 4 38.963 4s1.945.845 1.945 1.902-.864 1.902-1.945 1.902zm12.052 10.073l.192 2.513c-.888.399-1.656.61-2.569.61-2.592 0-3.553-1.714-3.553-3.921v-5.471h-1.248V8.954h1.248V5.597h3.073v3.357h2.809v2.654h-2.809v5.236c0 1.22.336 1.409 1.056 1.409.457 0 1.297-.188 1.801-.376zm18.653-8.57l-2.88.61c-.216-2.09-1.08-3.052-2.45-3.052-1.103 0-2.232.61-2.232 1.808 0 1.197 1.129 1.643 2.065 1.996l2.377.915c1.992.775 3.673 1.832 3.673 4.438 0 3.24-2.57 4.978-5.762 4.978-3.53 0-6.05-2.137-6.05-5.659l2.881-.61c.24 2.136 1.224 3.404 3.12 3.404 1.225 0 2.57-.516 2.57-1.925 0-1.268-1.129-1.69-2.473-2.207l-2.233-.869c-2.064-.798-3.385-1.972-3.385-4.227C58.89 5.808 61.362 4 64.387 4c3.169 0 5.281 1.972 5.281 5.307zm13.3 11.552h-2.832l-1.633-5.33-1.632 5.33h-2.833l-3.05-11.905h3.266l1.608 6.904 1.417-5.26h2.472l1.393 5.26 1.632-6.904h3.241L82.968 20.86zm14.909-4.93H90.05c.265 1.948 1.393 2.324 2.377 2.324.936 0 1.849-.446 2.473-1.456l2.689.68c-.649 2.28-2.69 3.523-5.09 3.523-2.905 0-5.617-1.62-5.617-6.058 0-4.508 2.784-6.128 5.497-6.128s5.498 1.62 5.498 6.105v1.01zm-7.754-2.396h4.465c-.36-1.62-1.345-1.972-2.209-1.972-.888 0-1.872.399-2.256 1.972zm20.31 7.326h-2.93l-.047-.822c-.745.658-1.56.963-2.617.963-2.473 0-5.33-1.62-5.33-6.081 0-4.485 2.881-6.105 5.258-6.105 1.08 0 1.872.328 2.593.845V4.14h3.072v16.718zm-3.073-4.978v-1.456c-.289-2.277-1.465-2.864-2.473-2.864-.984 0-2.28.563-2.28 3.358 0 2.77 1.272 3.334 2.328 3.334 1.008 0 2.136-.517 2.425-2.372zm16.468.047h-7.826c.264 1.95 1.393 2.325 2.377 2.325.936 0 1.848-.446 2.473-1.456l2.688.68c-.648 2.279-2.688 3.523-5.09 3.523-2.904 0-5.617-1.62-5.617-6.058 0-4.508 2.785-6.128 5.498-6.128s5.497 1.62 5.497 6.105v1.01zm-7.754-2.395h4.465c-.36-1.62-1.344-1.972-2.208-1.972-.888 0-1.873.399-2.257 1.972zM136 20.86h-3.073v-6.833c0-2.043-.936-2.465-1.656-2.465-.769 0-1.705.493-1.969 2.16v7.138h-3.073V8.954h2.929l.048.822c.84-.704 1.56-.962 2.425-.962 1.92 0 4.369 1.291 4.369 5.024v7.021z" fill="#FECB00" fill-rule="evenodd"/>
</svg>
