<svg width="34" height="26" viewBox="0 0 34 26" xmlns="http://www.w3.org/2000/svg" xmlns:xlink="http://www.w3.org/1999/xlink">
    <defs>
        <path d="M44.577 20.95c0-2.945-2.168-5.314-4.846-5.314-3.629-.17-7.33-.236-11.109-.236h-1.179c-3.772 0-7.48.065-11.108.236-2.672 0-4.84 2.382-4.84 5.328a95.84 95.84 0 0 0-.23 6.99c-.006 2.33.066 4.66.223 6.997 0 2.946 2.168 5.335 4.84 5.335 3.812.177 7.723.255 11.698.249 3.982.013 7.88-.066 11.698-.25 2.679 0 4.847-2.388 4.847-5.334a99.86 99.86 0 0 0 .222-7.003c.014-2.33-.058-4.66-.216-6.997zM24.823 34.376V21.513l9.497 6.428-9.497 6.434z" id="a"/>
    </defs>
    <g transform="translate(-11 -15)" fill="none" fill-rule="evenodd">
        <mask id="b" fill="#fff">
            <use xlink:href="#a"/>
        </mask>
        <g mask="url(#b)" fill="#000" fill-opacity=".7" fill-rule="nonzero">
            <path d="M0 0h56v56H0z"/>
        </g>
    </g>
</svg>
